<svg xmlns="http://www.w3.org/2000/svg" width="800" height="800" viewBox="0 0 800 800">
  <path d="M 652 398 L 648 400 L 643 406 L 642 411 L 643 565 L 645 630 L 646 632 L 652 634 L 696 637 L 699 633 L 700 407 L 698 401 L 696 400 Z" fill="#ff0000" fill-rule="evenodd"/>
  <path d="M 653 407 L 689 408 L 691 410 L 690 626 L 688 628 L 656 626 L 653 624 L 651 410 Z" fill="#ff0000" fill-rule="evenodd"/>
  <path d="M 108 398 L 101 400 L 98 404 L 98 626 L 101 634 L 103 635 L 152 632 L 156 627 L 155 405 L 151 400 Z" fill="#ff0000" fill-rule="evenodd"/>
  <path d="M 108 407 L 144 408 L 147 411 L 148 621 L 146 624 L 124 626 L 109 626 L 107 624 Z" fill="#ff0000" fill-rule="evenodd"/>
  <path d="M 334 386 L 334 390 L 336 392 L 464 391 L 463 383 L 336 383 Z" fill="#ff0000" fill-rule="evenodd"/>
  <path d="M 715 381 L 706 379 L 635 379 L 628 383 L 625 389 L 625 627 L 611 637 L 608 637 L 595 645 L 594 647 L 588 649 L 579 656 L 561 665 L 551 673 L 544 676 L 541 680 L 541 683 L 545 686 L 715 686 L 719 684 L 720 390 L 718 383 Z" fill="#ff0000" fill-rule="evenodd"/>
  <path d="M 637 389 L 708 389 L 711 392 L 711 673 L 709 676 L 573 677 L 569 675 L 569 673 L 572 670 L 594 658 L 628 636 L 632 635 L 635 631 L 635 391 Z" fill="#ff0000" fill-rule="evenodd"/>
  <path d="M 86 381 L 81 389 L 82 683 L 86 686 L 256 686 L 259 684 L 260 679 L 254 674 L 214 651 L 211 648 L 207 647 L 176 627 L 175 385 L 171 381 L 165 379 L 92 379 Z" fill="#ff0000" fill-rule="evenodd"/>
  <path d="M 93 389 L 166 390 L 166 631 L 167 633 L 172 635 L 176 639 L 180 640 L 189 647 L 193 648 L 196 651 L 223 666 L 224 668 L 228 669 L 232 673 L 231 676 L 93 676 L 91 673 L 91 391 Z" fill="#ff0000" fill-rule="evenodd"/>
  <path d="M 85 358 L 85 363 L 88 366 L 714 366 L 717 363 L 717 358 L 708 356 L 95 356 Z" fill="#ff0000" fill-rule="evenodd"/>
  <path d="M 334 331 L 336 337 L 462 337 L 465 334 L 465 331 L 462 328 L 337 328 Z" fill="#ff0000" fill-rule="evenodd"/>
  <path d="M 569 285 L 569 290 L 572 293 L 607 293 L 611 291 L 611 286 L 606 283 L 576 283 Z" fill="#ff0000" fill-rule="evenodd"/>
  <path d="M 187 290 L 192 293 L 224 293 L 228 290 L 228 285 L 224 283 L 192 283 L 188 284 Z" fill="#ff0000" fill-rule="evenodd"/>
  <path d="M 294 239 L 296 247 L 320 283 L 326 284 L 473 284 L 479 281 L 479 279 L 502 244 L 501 237 L 494 238 L 480 260 L 479 264 L 471 274 L 326 274 L 315 260 L 301 237 L 296 237 Z" fill="#ff0000" fill-rule="evenodd"/>
  <path d="M 216 243 L 220 250 L 223 252 L 224 257 L 227 259 L 240 281 L 261 311 L 539 311 L 542 309 L 548 297 L 554 290 L 555 286 L 566 268 L 570 264 L 582 243 L 581 237 L 576 237 L 572 241 L 545 284 L 543 290 L 541 291 L 536 300 L 533 302 L 267 302 L 263 299 L 255 284 L 253 283 L 223 237 L 217 237 Z" fill="#ff0000" fill-rule="evenodd"/>
  <path d="M 88 234 L 85 239 L 84 249 L 86 337 L 91 341 L 175 340 L 178 333 L 178 240 L 175 234 L 171 232 L 93 232 Z" fill="#ff0000" fill-rule="evenodd"/>
  <path d="M 96 242 L 167 242 L 169 244 L 169 329 L 166 332 L 95 331 L 94 244 Z" fill="#ff0000" fill-rule="evenodd"/>
  <path d="M 626 232 L 623 237 L 623 336 L 625 341 L 630 343 L 710 343 L 714 341 L 717 337 L 718 322 L 718 253 L 716 234 L 711 230 L 629 230 Z" fill="#ff0000" fill-rule="evenodd"/>
  <path d="M 634 239 L 706 239 L 708 241 L 707 334 L 633 333 L 632 241 Z" fill="#ff0000" fill-rule="evenodd"/>
  <path d="M 85 213 L 85 219 L 90 221 L 709 221 L 715 220 L 717 218 L 717 213 L 714 211 L 88 211 Z" fill="#ff0000" fill-rule="evenodd"/>
  <path d="M 252 195 L 252 199 L 255 201 L 463 202 L 543 201 L 546 198 L 546 195 L 543 192 L 255 192 Z" fill="#ff0000" fill-rule="evenodd"/>
  <path d="M 321 179 L 321 181 L 324 184 L 328 184 L 380 158 L 383 158 L 389 153 L 394 151 L 401 151 L 418 159 L 431 163 L 442 169 L 465 177 L 469 180 L 475 181 L 479 184 L 484 184 L 486 181 L 485 176 L 453 164 L 449 161 L 443 160 L 432 154 L 426 153 L 422 150 L 416 149 L 402 142 L 390 143 L 381 149 L 370 153 L 350 164 L 323 176 Z" fill="#ff0000" fill-rule="evenodd"/>
  <path d="M 265 176 L 265 180 L 267 182 L 276 181 L 279 178 L 296 170 L 304 164 L 318 158 L 321 155 L 377 124 L 385 122 L 405 122 L 415 124 L 434 133 L 456 146 L 514 175 L 520 180 L 530 183 L 533 180 L 533 176 L 513 164 L 508 163 L 507 161 L 497 157 L 494 154 L 476 146 L 473 143 L 459 137 L 439 125 L 414 114 L 399 112 L 382 113 L 368 118 L 347 131 L 343 132 L 340 135 L 303 154 Z" fill="#ff0000" fill-rule="evenodd"/>
</svg>